<?xml version="1.0" encoding="utf-8"?>
<!-- Generator: Adobe Illustrator 26.1.0, SVG Export Plug-In . SVG Version: 6.00 Build 0)  -->
<svg version="1.1" id="Vrstva_1" xmlns="http://www.w3.org/2000/svg" xmlns:xlink="http://www.w3.org/1999/xlink" x="0px" y="0px"
	 viewBox="0 0 200 128.1" style="enable-background:new 0 0 200 128.1;" xml:space="preserve">
<style type="text/css">
	.st0{fill:none;stroke:#000000;stroke-miterlimit:10;}
</style>
<path d="M28.2,51.4h148.2c-2,1.7-4,3.3-6,5c2,2,3.9,4,5.9,6c-10,0-20.1,0-30.1,0c-13.8,0-27.5,0-41.3,0c-15.5,0-31,0-46.5,0
	c-10,0-20.1,0-30.1,0c1.4-1.9,2.8-3.9,4.2-5.8C31,54.9,29.6,53.2,28.2,51.4z"/>
<path class="st0" d="M187.5,96"/>
<path class="st0" d="M91.5,0"/>
<path d="M28,64.7v19.9h10.5c0-1.8,0.3-7.3,4.4-12.4c5.1-6.4,12.3-7.3,13.8-7.5C47.1,64.7,37.6,64.7,28,64.7z"/>
<path d="M147,64.7c1,0,9.7,0.2,15,7.5c3.8,5.2,3.5,10.8,3.4,12.4c3.6,0,7.2,0,10.7,0c0-3.7,0-7.3,0-11c0-3,0-5.9,0-8.9
	C166.4,64.7,156.7,64.7,147,64.7z"/>
<path d="M27.8,86.2v39.1c1.1-5,1.9-9,2.4-11.6c1.9-10.1,2.4-14.7,4.9-21.6c0.9-2.6,1.7-4.6,2.3-5.8C34.2,86.2,31,86.2,27.8,86.2z"/>
<path d="M166.4,86.2c1.4,4.2,2.8,8.5,4.2,12.7c1.7,8.8,3.5,17.6,5.2,26.4c0-13,0-26,0-39.1L166.4,86.2L166.4,86.2z"/>
<path d="M175.1,49.2H29.5c24.2-3.5,35.7-10.6,49.7-19.1C89.8,23.7,99,16.2,103.6,4.8c5.6,12.4,11.6,22.4,22.2,28.6
	C138.5,40.7,151.6,45.7,175.1,49.2z"/>
<g>
	<path d="M76.1,70.3h4.1c3.2,0,5.4,1.1,5.4,4.2c0,3-2.2,4.4-5.3,4.4H78v5.7h-1.8C76.1,84.6,76.1,70.3,76.1,70.3z M80.1,77.4
		c2.5,0,3.7-0.9,3.7-2.9c0-2.1-1.3-2.7-3.8-2.7h-2v5.7L80.1,77.4L80.1,77.4z"/>
	<path d="M90.4,70.3h2.1l4.9,14.3h-1.9l-2.5-8c-0.5-1.6-1-3.2-1.4-4.8h-0.1c-0.4,1.7-0.9,3.2-1.4,4.8l-2.5,8h-1.9L90.4,70.3z
		 M88.1,78.8h6.6v1.4h-6.6V78.8z M90.2,68.5l3.1-2.8l1,1.2L91,69.4L90.2,68.5z"/>
	<path d="M99.2,70.3h4.5c2.9,0,5,1.1,5,4c0,2.9-2.1,4.2-5,4.2h-2.7v6.1h-1.8V70.3z M103.5,77.1c2.2,0,3.5-0.9,3.5-2.8
		c0-1.9-1.2-2.6-3.5-2.6h-2.4v5.3C101.1,77.1,103.5,77.1,103.5,77.1z M103.4,78l1.4-0.9l4.4,7.5h-2.1L103.4,78z"/>
	<path d="M114.4,71.8H110v-1.5h10.5v1.5h-4.3v12.8h-1.8L114.4,71.8L114.4,71.8z"/>
	<path d="M125.1,79l-4.3-8.8h1.9l1.8,4c0.5,1.1,0.9,2.1,1.4,3.1h0.1c0.5-1.1,1-2.1,1.4-3.1l1.9-4h1.9l-4.3,8.8v5.6h-1.8L125.1,79
		L125.1,79z"/>
</g>
<g>
	<path d="M55.1,111l1.7-1.9c1.6,1.6,3.8,2.6,6.1,2.6c2.9,0,4.6-1.4,4.6-3.4c0-2.2-1.6-2.9-3.7-3.7l-3.2-1.3c-2-0.8-4.5-2.3-4.5-5.5
		c0-3.2,2.9-5.6,6.9-5.6c2.6,0,4.9,1.1,6.5,2.6l-1.5,1.7c-1.3-1.2-3-2-5-2c-2.5,0-4.1,1.2-4.1,3.1c0,2,1.9,2.8,3.6,3.5l3.1,1.3
		c2.5,1.1,4.5,2.5,4.5,5.7c0,3.4-2.9,6-7.5,6C59.7,114.2,57.1,113,55.1,111z"/>
	<path d="M85.2,94.9h-6.7v-2.3h16.1v2.3H88v18.9h-2.8C85.2,113.8,85.2,94.9,85.2,94.9z"/>
	<path d="M108.5,92.6h3.2l7.4,21.2h-3l-3.8-11.9c-0.8-2.4-1.5-4.7-2.2-7.1H110c-0.7,2.5-1.4,4.8-2.2,7.1l-3.9,11.9h-2.8L108.5,92.6z
		 M105,105.2h10.1v2.1H105V105.2z"/>
	<path d="M128.8,92.6h2.9l8,13.3l2.4,4.4h0.1c-0.1-2.1-0.4-4.5-0.4-6.8v-11h2.7v21.2h-2.9l-8-13.4l-2.4-4.4h-0.1
		c0.1,2.1,0.4,4.4,0.4,6.6v11.1h-2.7V92.6z"/>
</g>
</svg>
